<svg width="290" height="72" viewBox="0 0 290 72" fill="none" xmlns="http://www.w3.org/2000/svg">
<path d="M96.1951 61.2186H91.2038V53.4568H96.1462V54.612H92.5873V56.7152H95.4463V57.8413H92.5873V60.0132H96.1951V61.2186ZM96.5247 59.3471L97.8697 59.0583C98.0304 59.8269 98.65 60.2112 99.7272 60.2112C100.217 60.2112 100.596 60.1146 100.861 59.9166C101.126 59.7198 101.256 59.4752 101.256 59.1829C101.256 58.971 101.197 58.7753 101.078 58.5948C100.957 58.4143 100.7 58.2722 100.306 58.1709L98.8375 57.7831C98.3344 57.6515 97.9629 57.5001 97.723 57.3324C97.4831 57.1636 97.2886 56.9248 97.1454 56.6185C97.001 56.3123 96.9276 55.9839 96.9276 55.6345C96.9276 54.9416 97.1838 54.3849 97.6951 53.9657C98.2051 53.5464 98.8573 53.3368 99.6527 53.3368C100.313 53.3368 100.903 53.4836 101.424 53.7747C101.942 54.0658 102.275 54.4793 102.417 55.015L101.099 55.3457C100.898 54.7576 100.425 54.4641 99.6818 54.4641C99.2486 54.4641 98.9202 54.5538 98.6943 54.7355C98.4672 54.9183 98.353 55.1489 98.353 55.4307C98.353 55.8732 98.7094 56.1842 99.4221 56.3623L100.729 56.6919C101.521 56.8922 102.051 57.1892 102.322 57.5816C102.592 57.9753 102.727 58.4085 102.727 58.8813C102.727 59.6429 102.442 60.2438 101.873 60.6805C101.305 61.1196 100.569 61.3373 99.6643 61.3397C98.9027 61.3373 98.2366 61.1766 97.6636 60.854C97.0906 60.5315 96.711 60.0307 96.5247 59.3471ZM108.149 58.5226L109.433 58.6658C109.35 59.4426 109.052 60.0831 108.539 60.5839C108.028 61.087 107.356 61.3373 106.521 61.3397C105.82 61.3373 105.25 61.1603 104.814 60.8028C104.375 60.4488 104.04 59.9632 103.803 59.3529C103.567 58.7439 103.449 58.0708 103.449 57.3348C103.449 56.1527 103.726 55.1896 104.282 54.449C104.836 53.7071 105.601 53.3368 106.571 53.3368C107.334 53.3368 107.969 53.5732 108.475 54.0484C108.981 54.5223 109.3 55.2001 109.433 56.0828L108.149 56.2203C107.913 55.0487 107.39 54.4641 106.583 54.4641C106.066 54.4641 105.663 54.7063 105.376 55.1943C105.09 55.6811 104.947 56.388 104.947 57.3115C104.947 58.2524 105.1 58.9616 105.408 59.4403C105.714 59.9201 106.122 60.1611 106.63 60.1611C107.035 60.1611 107.378 59.9993 107.665 59.6778C107.949 59.3553 108.111 58.971 108.149 58.5226ZM113.3 61.3397C112.28 61.3373 111.485 60.9507 110.916 60.1786C110.349 59.4042 110.065 58.4492 110.065 57.3115C110.065 56.1818 110.367 55.2362 110.97 54.4781C111.575 53.7165 112.373 53.3368 113.362 53.3368C114.361 53.3368 115.151 53.7165 115.729 54.4781C116.309 55.2362 116.599 56.1877 116.599 57.3289C116.599 58.5261 116.298 59.495 115.697 60.2333C115.094 60.9705 114.296 61.3373 113.3 61.3397ZM113.312 60.2112C113.811 60.2112 114.233 60.0039 114.579 59.587C114.925 59.1689 115.097 58.4143 115.097 57.3173C115.097 56.4264 114.953 55.7277 114.669 55.2234C114.384 54.7168 113.941 54.4641 113.341 54.4641C112.153 54.4641 111.561 55.4284 111.561 57.3581C111.561 58.2932 111.712 59.0036 112.016 59.4869C112.317 59.9713 112.749 60.2112 113.312 60.2112ZM122.555 61.2186H117.828V53.4568H119.285V59.9515H122.555V61.2186ZM129.541 61.2186H128.062L127.447 59.3704H124.492L123.891 61.2186H122.709L125.258 53.4568H126.963L129.541 61.2186ZM127.076 58.2513L125.955 54.7867L124.835 58.2513H127.076ZM133.246 61.2186V53.4568H136.078C137.125 53.4568 137.964 53.8318 138.599 54.5806C139.233 55.3282 139.55 56.2517 139.55 57.3522C139.55 58.4504 139.223 59.3704 138.57 60.1111C137.919 60.8506 136.983 61.2186 135.767 61.2186H133.246ZM134.67 60.0761H135.824C136.443 60.0761 136.968 59.8409 137.4 59.3704C137.832 58.9011 138.047 58.2 138.047 57.273C138.047 56.5137 137.86 55.8732 137.482 55.3469C137.104 54.8228 136.606 54.5596 135.988 54.5596H134.67V60.0761ZM145.766 61.2186H140.774V53.4568H145.716V54.612H142.158V56.7152H145.017V57.8413H142.158V60.0132H145.766V61.2186ZM157.318 61.2186H155.906V54.4234L153.778 61.2186H153.052L150.912 54.4234V61.2186H149.782V53.4568H151.947L153.558 58.4551L155.14 53.4568H157.318V61.2186ZM163.945 61.2186H158.953V53.4568H163.894V54.612H160.337V56.7152H163.196V57.8413H160.337V60.0132H163.945V61.2186ZM165.038 61.2186V53.4568H167.87C168.917 53.4568 169.757 53.8318 170.392 54.5806C171.025 55.3282 171.342 56.2517 171.342 57.3522C171.342 58.4504 171.016 59.3704 170.362 60.1111C169.711 60.8506 168.775 61.2186 167.559 61.2186H165.038ZM166.462 60.0761H167.616C168.236 60.0761 168.76 59.8409 169.192 59.3704C169.624 58.9011 169.84 58.2 169.84 57.273C169.84 56.5137 169.652 55.8732 169.275 55.3469C168.896 54.8228 168.399 54.5596 167.781 54.5596H166.462V60.0761ZM173.95 61.2186H172.567V53.4568H173.95V61.2186ZM179.873 58.5226L181.158 58.6658C181.075 59.4426 180.777 60.0831 180.263 60.5839C179.752 61.087 179.08 61.3373 178.246 61.3397C177.545 61.3373 176.975 61.1603 176.538 60.8028C176.1 60.4488 175.764 59.9632 175.527 59.3529C175.291 58.7439 175.174 58.0708 175.174 57.3348C175.174 56.1527 175.45 55.1896 176.006 54.449C176.561 53.7071 177.326 53.3368 178.297 53.3368C179.059 53.3368 179.693 53.5732 180.201 54.0484C180.706 54.5223 181.025 55.2001 181.158 56.0828L179.873 56.2203C179.638 55.0487 179.115 54.4641 178.308 54.4641C177.791 54.4641 177.387 54.7063 177.102 55.1943C176.815 55.6811 176.671 56.388 176.671 57.3115C176.671 58.2524 176.825 58.9616 177.132 59.4403C177.439 59.9201 177.847 60.1611 178.354 60.1611C178.76 60.1611 179.104 59.9993 179.39 59.6778C179.674 59.3553 179.835 58.971 179.873 58.5226ZM183.579 61.2186H182.196V53.4568H183.579V61.2186ZM191.011 61.2186H189.666L186.749 56.2599C186.705 56.1842 186.632 56.0619 186.53 55.8907C186.485 55.815 186.415 55.6951 186.323 55.532V61.2186H185.208V53.4568H186.737L189.43 58.0277C189.451 58.0661 189.614 58.3444 189.92 58.8638V53.4568H191.011V61.2186ZM198.666 61.2186H197.187L196.572 59.3704H193.616L193.015 61.2186H191.833L194.384 53.4568H196.088L198.666 61.2186ZM196.201 58.2513L195.08 54.7867L193.961 58.2513H196.201ZM207.402 61.2186H202.411V53.4568H207.353V54.612H203.795V56.7152H206.654V57.8413H203.795V60.0132H207.402V61.2186ZM210.614 59.3471L211.959 59.0583C212.12 59.8269 212.74 60.2112 213.817 60.2112C214.307 60.2112 214.686 60.1146 214.951 59.9166C215.215 59.7198 215.346 59.4752 215.346 59.1829C215.346 58.971 215.286 58.7753 215.168 58.5948C215.047 58.4143 214.789 58.2722 214.396 58.1709L212.927 57.7831C212.424 57.6515 212.052 57.5001 211.813 57.3324C211.573 57.1636 211.378 56.9248 211.235 56.6185C211.091 56.3123 211.017 55.9839 211.017 55.6345C211.017 54.9416 211.273 54.3849 211.785 53.9657C212.295 53.5464 212.947 53.3368 213.742 53.3368C214.403 53.3368 214.993 53.4836 215.514 53.7747C216.032 54.0658 216.365 54.4793 216.507 55.015L215.189 55.3457C214.987 54.7576 214.514 54.4641 213.771 54.4641C213.338 54.4641 213.01 54.5538 212.784 54.7355C212.557 54.9183 212.443 55.1489 212.443 55.4307C212.443 55.8732 212.799 56.1842 213.512 56.3623L214.818 56.6919C215.609 56.8922 216.14 57.1892 216.41 57.5816C216.682 57.9753 216.817 58.4085 216.817 58.8813C216.817 59.6429 216.531 60.2438 215.963 60.6805C215.395 61.1196 214.659 61.3373 213.754 61.3397C212.992 61.3373 212.326 61.1766 211.753 60.854C211.18 60.5315 210.801 60.0307 210.614 59.3471ZM223.927 61.2186H222.449L221.834 59.3704H218.878L218.277 61.2186H217.095L219.644 53.4568H221.349L223.927 61.2186ZM221.462 58.2513L220.342 54.7867L219.222 58.2513H221.462ZM230.065 53.4568V58.4434C230.065 59.1189 229.99 59.6371 229.838 60.0016C229.689 60.3649 229.399 60.6794 228.97 60.9426C228.539 61.2069 228.015 61.3373 227.396 61.3397C226.77 61.3373 226.254 61.2244 225.851 60.9973C225.447 60.7702 225.157 60.4581 224.98 60.0622C224.804 59.6662 224.716 59.1596 224.716 58.5459V53.4568H226.13V58.4434C226.13 59.1258 226.271 59.5742 226.555 59.7885C226.837 60.0039 227.167 60.1111 227.542 60.1111C227.974 60.1111 228.318 59.9958 228.578 59.7652C228.837 59.5358 228.965 59.0956 228.965 58.4434V53.4568H230.065ZM228.831 50.9821L229.202 51.8345L226.856 52.8361L226.62 52.2258L228.831 50.9821ZM231.545 61.2186V53.4568H234.377C235.424 53.4568 236.264 53.8318 236.897 54.5806C237.532 55.3282 237.849 56.2517 237.849 57.3522C237.849 58.4504 237.523 59.3704 236.869 60.1111C236.217 60.8506 235.282 61.2186 234.065 61.2186H231.545ZM232.968 60.0761H234.123C234.742 60.0761 235.267 59.8409 235.699 59.3704C236.131 58.9011 236.346 58.2 236.346 57.273C236.346 56.5137 236.158 55.8732 235.782 55.3469C235.403 54.8228 234.905 54.5596 234.286 54.5596H232.968V60.0761ZM244.065 61.2186H239.073V53.4568H244.015V54.612H240.456V56.7152H243.315V57.8413H240.456V60.0132H244.065V61.2186ZM249.464 61.2186H248.08V53.4568H251.226C252.124 53.4568 252.788 53.6862 253.222 54.1415C253.654 54.598 253.872 55.1372 253.872 55.7591C253.872 56.4695 253.638 57.0436 253.168 57.4827C252.7 57.9229 252.104 58.1418 251.383 58.1418H249.464V61.2186ZM249.464 56.9423H251.102C251.53 56.9423 251.856 56.8363 252.081 56.6244C252.308 56.4113 252.42 56.1294 252.42 55.7766C252.42 55.4575 252.316 55.1861 252.108 54.9567C251.898 54.7296 251.522 54.6178 250.978 54.6178H249.464V56.9423ZM260.201 53.4568V58.4434C260.201 59.1189 260.127 59.6371 259.974 60.0016C259.825 60.3649 259.534 60.6794 259.105 60.9426C258.676 61.2069 258.15 61.3373 257.532 61.3397C256.905 61.3373 256.391 61.2244 255.988 60.9973C255.584 60.7702 255.294 60.4581 255.117 60.0622C254.941 59.6662 254.852 59.1596 254.852 58.5459V53.4568H256.266V58.4434C256.266 59.1258 256.406 59.5742 256.691 59.7885C256.973 60.0039 257.304 60.1111 257.679 60.1111C258.111 60.1111 258.454 59.9958 258.714 59.7652C258.974 59.5358 259.102 59.0956 259.102 58.4434V53.4568H260.201ZM258.968 50.9821L259.338 51.8345L256.993 52.8361L256.756 52.2258L258.968 50.9821ZM261.721 61.2186V53.4568H264.715C265.222 53.4568 265.641 53.5092 265.975 53.6163C266.309 53.7223 266.599 53.9436 266.842 54.2813C267.086 54.619 267.208 55.0149 267.208 55.4691C267.208 55.8988 267.084 56.2715 266.838 56.5871C266.59 56.9039 266.248 57.1053 265.812 57.1927C266.354 57.2882 266.761 57.5094 267.039 57.8588C267.318 58.2058 267.456 58.6193 267.456 59.0979C267.456 59.6965 267.262 60.1996 266.874 60.6072C266.484 61.0148 265.887 61.2186 265.082 61.2186H261.721ZM263.031 56.7152H264.721C265.067 56.7152 265.339 56.6104 265.538 56.4031C265.741 56.1935 265.841 55.928 265.841 55.6054C265.841 55.2502 265.726 54.9882 265.496 54.8193C265.268 54.6504 265.002 54.5654 264.692 54.5654H263.031V56.7152ZM263.031 60.0517H264.822C265.201 60.0517 265.501 59.9538 265.72 59.7512C265.939 59.5521 266.048 59.2796 266.048 58.9384C266.048 58.6123 265.937 58.3456 265.714 58.136C265.491 57.9287 265.195 57.8239 264.828 57.8239H263.031V60.0517ZM273.39 61.2186H268.664V53.4568H270.12V59.9515H273.39V61.2186ZM275.733 61.2186H274.349V53.4568H275.733V61.2186ZM281.657 58.5226L282.94 58.6658C282.858 59.4426 282.56 60.0831 282.046 60.5839C281.536 61.087 280.863 61.3373 280.029 61.3397C279.328 61.3373 278.757 61.1603 278.321 60.8028C277.883 60.4488 277.546 59.9632 277.31 59.3529C277.075 58.7439 276.957 58.0708 276.957 57.3348C276.957 56.1527 277.233 55.1896 277.788 54.449C278.344 53.7071 279.109 53.3368 280.079 53.3368C280.842 53.3368 281.475 53.5732 281.983 54.0484C282.489 54.5223 282.808 55.2001 282.94 56.0828L281.657 56.2203C281.421 55.0487 280.898 54.4641 280.091 54.4641C279.574 54.4641 279.17 54.7063 278.884 55.1943C278.598 55.6811 278.453 56.388 278.453 57.3115C278.453 58.2524 278.607 58.9616 278.915 59.4403C279.222 59.9201 279.63 60.1611 280.136 60.1611C280.543 60.1611 280.886 59.9993 281.173 59.6778C281.457 59.3553 281.619 58.971 281.657 58.5226ZM289.95 61.2186H288.47L287.855 59.3704H284.9L284.299 61.2186H283.117L285.667 53.4568H287.372L289.95 61.2186ZM287.484 58.2513L286.364 54.7867L285.244 58.2513H287.484Z" fill="white"/>
<path fill-rule="evenodd" clip-rule="evenodd" d="M113.849 27.7938C117.154 29.7945 119.375 33.4244 119.375 37.5493C119.375 43.8158 114.247 48.9445 107.979 48.9445H91.1538V29.5558V26.1541V13.7783C91.1538 11.8067 92.7609 10.1996 94.7313 10.1996H108.298C113.622 10.1996 117.976 14.5551 117.976 19.8783C117.976 23.1402 116.341 26.0388 113.849 27.7938ZM107.008 31.8243H98.0375V41.9793H107.008C109.801 41.9793 112.086 39.6944 112.086 36.9018V36.9006C112.086 34.108 109.801 31.8243 107.008 31.8243ZM107.167 16.9436H98.0375V25.078H107.167C109.404 25.078 111.233 23.2474 111.233 21.0102C111.233 18.7731 109.404 16.9436 107.167 16.9436Z" fill="white"/>
<path fill-rule="evenodd" clip-rule="evenodd" d="M191.963 48.9452H184.703V14.3264C184.703 12.0532 186.558 10.198 188.831 10.198H191.963V48.9452Z" fill="white"/>
<path fill-rule="evenodd" clip-rule="evenodd" d="M159.567 48.9452H152.308V14.3264C152.308 12.0532 154.162 10.198 156.437 10.198H159.567V24.7224H173.608V10.198C176.03 10.198 178.446 10.198 180.868 10.198V48.9452H173.608V31.605H159.567V48.9452Z" fill="white"/>
<path fill-rule="evenodd" clip-rule="evenodd" d="M233.563 48.9452H226.303V14.3264C226.303 12.0532 228.158 10.198 230.432 10.198C231.588 10.198 232.743 10.198 233.9 10.198L247.604 35.5272V10.198C250.025 10.198 252.441 10.198 254.863 10.198V48.9452H247.604V48.9138L233.563 22.9616V48.9452Z" fill="white"/>
<path fill-rule="evenodd" clip-rule="evenodd" d="M151.345 48.9441H143.719L141.473 40.8388H127.884L125.64 48.9441H118.013L129.083 13.2969C129.635 11.5198 131.161 10.3262 132.992 10.2097L133.289 10.1992H136.369H139.313L151.345 48.9441ZM139.689 34.3964L134.679 17.2355L129.668 34.3964H139.689Z" fill="white"/>
<path fill-rule="evenodd" clip-rule="evenodd" d="M225.886 48.9441H218.26L216.014 40.8388H202.426L200.181 48.9441H192.554L203.625 13.2969C204.177 11.5198 205.702 10.3262 207.533 10.2097L207.83 10.1992H210.91H213.854L225.886 48.9441ZM214.23 34.3964L209.22 17.2355L204.209 34.3964H214.23Z" fill="white"/>
<path fill-rule="evenodd" clip-rule="evenodd" d="M290 48.9441H282.373L280.129 40.8388H266.54L264.295 48.9441H256.668L267.738 13.2969C268.29 11.5198 269.817 10.3262 271.647 10.2097L271.943 10.1992H275.025H277.968L290 48.9441ZM278.345 34.3964L273.334 17.2355L268.324 34.3964H278.345Z" fill="white"/>
<path fill-rule="evenodd" clip-rule="evenodd" d="M16.5928 0H65.6161L65.58 1.52324C65.3856 9.84052 65.1422 18.1567 64.7439 26.4681C64.3491 34.7109 63.7948 42.9385 63.1077 51.1626L63.039 51.9836L62.3053 52.3609C49.5254 58.936 32.6824 58.936 19.9025 52.3609L19.17 51.9836L19.1013 51.1626C18.4142 42.9385 17.8599 34.7109 17.4651 26.4681C17.0668 18.1567 16.8234 9.84052 16.6289 1.52324L16.5928 0ZM41.1045 27.7317L47.8601 35.349C46.4149 36.6452 45.5054 38.526 45.5054 40.6198C45.5054 44.5316 48.6765 47.7015 52.587 47.7015C54.3758 47.7015 56.0097 47.0377 57.2558 45.943L61.638 50.8843L61.6252 51.038C55.4193 54.2312 48.2071 55.8185 40.9997 55.8034H41.1045V27.7317H19.0163C18.604 19.4575 18.3443 11.2042 18.1196 1.66299L25.1174 9.60063C23.5849 10.8991 22.6113 12.8381 22.6113 15.0053C22.6113 18.9159 25.7812 22.0859 29.6918 22.0859C31.5388 22.0859 33.2204 21.379 34.4816 20.2203L41.1045 27.7317H63.1927C63.6073 19.4062 63.8681 11.1041 64.0929 1.4883H41.1045H18.1161H40.9543H41.1045V27.7317ZM47.8601 35.349C48.9455 34.3755 50.3325 33.7315 51.865 33.5754V31.7156H49.8445V30.2716H51.865V28.4677H53.3091V30.2716H55.3284V31.7156H53.3091V33.5754C56.8808 33.9376 59.6676 36.9538 59.6676 40.6198C59.6676 42.7417 58.7336 44.6457 57.2558 45.943L47.8601 35.349ZM52.8316 6.49009H53.8308C53.9636 6.49009 54.0719 6.59723 54.0707 6.72999L54.0427 9.9663C55.0676 9.24776 55.9002 8.38017 55.8886 7.01763C55.8769 5.73662 54.8824 4.65008 53.0191 4.57904C51.667 4.5278 50.4699 5.14735 50.4699 5.14735C50.2148 5.44897 50.308 6.18963 50.308 6.18963C48.7102 7.04675 47.2732 6.62984 47.2732 6.62984C47.5981 5.44897 48.8022 4.05849 49.0806 4.29023C49.3577 4.52198 50.053 4.40669 50.053 4.40669C52.1911 3.0756 56.4802 3.21651 57.852 5.7075C59.6978 9.05794 56.1273 11.3847 53.5979 12.7275C51.9663 13.5927 50.9811 14.5197 51.2362 15.5073C51.4097 16.1769 51.9885 16.6823 52.6977 17.0864L52.6651 13.9293C53.075 13.5718 53.6619 13.3121 54.0148 13.184L53.9042 25.6983C53.903 25.8311 53.7959 25.9394 53.6643 25.9394H53.0284C52.8968 25.9394 52.7897 25.8311 52.7885 25.6983L52.7151 18.6958C51.0556 18.1182 49.3531 17.2541 49.1411 15.7495C48.9094 14.1028 50.1554 12.6599 51.5226 11.6002C51.858 11.3405 52.2388 11.0994 52.6336 10.8572L52.5917 6.72999C52.5905 6.59723 52.6988 6.49009 52.8316 6.49009ZM54.3514 19.2059C54.5552 19.2653 54.7473 19.3224 54.9243 19.3759C56.4452 19.8406 55.0978 20.8049 54.5994 21.5164C53.6712 22.8417 53.6014 24.7853 55.4274 25.2768C53.7982 23.9631 54.724 22.6856 55.9491 21.6957C56.5337 21.2241 57.1172 20.6593 57.1859 20.0246C57.2697 19.2397 56.4965 18.7203 55.5718 18.315C55.2341 18.1671 54.8114 18.0122 54.3607 17.8387L54.3514 19.2059ZM34.4816 20.2203C35.8896 18.9253 36.7735 17.0689 36.7735 15.0053C36.7735 11.3382 33.9855 8.32194 30.4138 7.96093V6.09996H32.4343V4.65591H30.4138V2.85201H28.9698V4.65591H26.9493V6.09996H28.9698V7.96093C27.5094 8.10883 26.1795 8.70043 25.1174 9.60063L34.4816 20.2203ZM30.6875 33.325H31.6867C31.8195 33.325 31.9289 33.4333 31.9278 33.5649L31.8986 36.8013C32.9235 36.0839 33.7573 35.2151 33.7445 33.8537C33.7328 32.5716 32.7383 31.485 30.875 31.414C29.5241 31.3628 28.3269 31.9823 28.3269 31.9823C28.0719 32.2839 28.1639 33.0246 28.1639 33.0246C26.5661 33.8817 25.1302 33.4648 25.1302 33.4648C25.454 32.2839 26.6581 30.8946 26.9365 31.1252C27.2148 31.3569 27.91 31.2416 27.91 31.2416C30.047 29.9117 34.3372 30.0526 35.7091 32.5425C37.5537 35.8929 33.9832 38.2197 31.4538 39.5624C29.8222 40.4277 28.837 41.3558 29.0921 42.3422C29.2656 43.0118 29.8455 43.5173 30.5547 43.9214L30.521 40.7642C30.9309 40.4067 31.5178 40.147 31.8707 40.0189L31.7612 52.5345C31.7601 52.666 31.6529 52.7743 31.5202 52.7743H30.8843C30.7527 52.7743 30.6456 52.666 30.6444 52.5345L30.571 45.5308C28.9127 44.9532 27.2101 44.0891 26.9982 42.5844C26.7664 40.9389 28.0125 39.4949 29.3785 38.4363C29.7139 38.1766 30.0959 37.9344 30.4907 37.6921L30.4476 33.5649C30.4464 33.4333 30.5559 33.325 30.6875 33.325ZM32.2073 46.0409C32.4111 46.1003 32.6044 46.1573 32.7814 46.2109C34.3023 46.6767 32.9537 47.6398 32.4565 48.3513C31.5272 49.6766 31.4584 51.6214 33.2833 52.1117C31.6541 50.7981 32.5811 49.5206 33.805 48.5319C34.3896 48.059 34.9742 47.4942 35.0418 46.8596C35.1268 46.0746 34.3524 45.5564 33.4277 45.15C33.0912 45.0021 32.6673 44.8484 32.2177 44.6737L32.2073 46.0409Z" fill="white"/>
<path fill-rule="evenodd" clip-rule="evenodd" d="M64.7951 60.2392C64.4446 60.0575 64.1069 59.8618 63.7831 59.6534C61.2758 58.0335 61.0103 56.7222 61.1163 53.9552C61.2223 51.2022 61.8045 48.2558 62.6908 45.8359L62.7478 45.6787L62.9074 45.6228C65.1189 44.846 67.8311 44.6853 70.1533 44.8483C72.9505 45.044 75.8503 45.745 78.3331 47.0726L78.8374 47.3428L78.3739 47.6771C76.9473 48.7019 76.1438 51.9615 76.2532 53.6268C77.3316 54.0157 78.7244 54.6271 79.6386 55.2164C80.717 55.914 82.0353 57.0552 82.196 58.4248C82.2123 58.6833 82.2193 58.8789 82.1704 59.141C81.7686 61.2442 80.5714 63.8901 79.974 66.0736C79.5839 67.499 79.1367 69.3775 78.056 70.443C76.6713 71.8091 74.5169 71.6355 72.7619 71.3013C65.509 69.9213 58.2317 68.6112 50.8635 68.0347C47.8077 67.7948 44.7274 67.6947 41.6635 67.683C38.5937 67.6702 35.5111 67.7482 32.4483 67.9544C24.7145 68.4749 17.0552 69.8538 9.45059 71.3013C7.6956 71.6355 5.54116 71.8091 4.1565 70.443C3.07579 69.3775 2.6286 67.499 2.23847 66.0736C1.73887 64.2476 -0.0207764 60.2578 0.000185705 58.6693L0.0164912 58.4248C0.176036 57.0552 1.49432 55.914 2.57386 55.2164C3.48688 54.6271 4.83777 53.9855 5.91499 53.5965C6.02795 51.8799 5.30359 48.7298 3.83857 47.6771L3.37392 47.3428L3.87817 47.0726C6.36218 45.745 9.26193 45.044 12.058 44.8483C14.3813 44.6853 17.0936 44.846 19.3051 45.6228L19.4635 45.6787L19.5217 45.8359C20.4568 48.3921 21.0543 51.5364 21.109 54.4175C21.1579 56.9912 20.7235 58.1709 18.4282 59.6534C18.0998 59.8653 17.7551 60.0645 17.3975 60.2496C22.3085 59.6138 27.2066 58.8196 32.1292 58.2885C35.362 57.9403 38.5914 57.7575 41.8428 57.7924C45.0931 57.8274 48.3236 58.0754 51.5517 58.4539C54.7916 58.8335 58.0209 59.3017 61.2525 59.7535C62.4311 59.9189 63.6119 60.0843 64.7951 60.2392ZM29.1782 62.0477C28.9803 62.8711 28.9337 63.1145 29.0082 63.9366C29.0257 64.1253 29.0303 64.0449 29.0641 64.1859C29.1945 64.7309 29.3098 65.2386 29.6639 65.687C29.7745 65.8267 30.1215 66.0992 30.3102 66.1446C30.7387 66.2494 30.8971 66.331 31.3245 66.1493C31.6681 66.0037 32.0337 65.5996 32.2072 65.2782C32.3971 64.9277 32.6405 63.7782 32.6358 63.43L32.4588 62.0768C32.2387 61.4841 31.8264 60.6211 31.1312 60.4954C30.1646 60.3195 29.8059 60.9635 29.4833 61.3548C29.3122 61.5633 29.2504 61.7438 29.1782 62.0477ZM47.3978 65.836C47.4001 65.4191 47.3023 65.6683 47.3244 65.3131C47.2883 64.116 47.2091 62.3447 47.3337 61.1289C47.3523 60.2811 47.7075 60.2683 47.0461 60.1658C46.4405 60.0715 46.7712 60.4674 46.7759 61.3478C46.7805 62.4506 46.8027 63.8924 46.7072 64.9591C46.692 65.1315 46.5441 65.7009 46.6396 65.8092C46.7072 65.8849 47.2708 65.8628 47.3978 65.836ZM63.0052 62.0489C62.9621 62.2259 63.0669 62.4204 63.0518 62.6696C62.9749 63.847 63.1112 65.8547 62.8387 66.9365C62.6605 67.6434 62.7606 67.5712 63.2626 67.6935L64.497 67.7925C64.5098 67.7855 64.7416 67.4583 64.6565 67.1275C64.2187 67.1229 64.242 67.3139 63.4827 67.1939C63.3394 66.8073 63.3604 66.9051 63.4291 66.3345C63.4652 66.0317 63.3883 65.6974 63.4535 65.4261C63.4931 65.2631 63.5327 65.2514 63.5805 65.1058C64.0824 65.2281 64.0649 65.4878 64.2606 65.3632C64.3025 65.3376 64.5447 65.0302 64.4784 64.7215C64.0638 64.6295 64.058 64.81 63.5164 64.5364L63.5665 63.7759C63.5572 63.4988 63.4617 62.5124 63.924 62.6242C64.6088 62.7919 64.5121 63.5325 64.8219 62.2399C64.1383 62.0733 64.2222 62.1898 63.8332 62.1444C63.6492 62.1234 63.0471 61.8754 63.0052 62.0489ZM9.48087 68.4085C9.45408 68.518 9.30851 68.7521 9.24213 68.8126C8.77747 69.2435 8.44092 68.3363 8.31049 68.8779C8.25575 69.1061 8.35125 68.7835 8.36173 69.2528C8.36638 69.4636 8.31863 69.7245 8.7798 69.643C10.0783 69.4147 10.3939 67.888 9.79297 66.9598C9.5519 66.5872 9.01737 66.3694 8.7274 66.027C8.08922 65.2759 8.71226 64.5865 8.81358 64.541C9.12451 64.4036 9.43661 64.8159 9.50183 64.541C9.70563 63.6909 8.61909 63.6164 8.25808 64.201C7.75499 65.015 7.70259 66.0911 8.41413 66.8271C8.58882 67.0087 9.68583 67.5526 9.48087 68.4085ZM10.5115 63.4801C10.3974 63.621 10.7933 69.1574 10.8853 69.1574L12.079 68.9512C12.256 68.9011 12.3795 68.8953 12.5448 68.8534C12.5786 68.7137 12.6415 68.2164 12.6205 68.1186C12.362 68.0836 12.4191 68.2851 11.7564 68.4901C11.5911 68.5401 11.5654 68.4959 11.4152 68.5285C11.2603 68.1092 11.2312 67.0623 11.23 66.572C11.4711 66.4008 11.5025 66.4369 11.8938 66.5324C12.0394 66.3997 12.0045 66.5126 12.065 66.3391C12.2385 65.85 12.2385 65.7592 11.6143 65.8791C11.0029 65.9967 11.1497 65.7731 11.1532 65.5635L11.0274 64.0589L12.1128 63.9425C12.1361 63.84 12.1093 63.4009 12.0697 63.3346L10.5115 63.4801ZM57.1614 61.2279C57.1673 61.4224 57.1591 61.2302 57.1952 61.3688C57.2313 61.5027 57.2185 61.3874 57.2266 61.512C57.3384 63.1785 57.0589 64.5341 57.0822 66.1039C57.0904 66.7188 56.9996 66.4404 56.9902 66.7677C57.2639 66.9051 57.6995 66.9133 57.9743 66.9202C58.8512 66.9447 58.7953 67.2172 58.9921 66.4008C59.0608 66.1097 58.7371 66.303 58.5822 66.3263C58.0081 66.4136 58.2573 66.473 57.746 66.3484C57.5667 66.3042 57.6377 66.0468 57.6622 65.8721C57.7344 65.3586 57.5644 64.6761 57.88 64.3186L58.5193 64.5841C58.6544 64.4141 58.8698 63.9064 58.694 63.8633C58.3854 63.7887 58.0791 63.7515 57.8509 63.8097C57.703 63.4091 57.7658 62.276 57.8788 61.8043C58.4937 61.9394 58.1234 61.8113 58.7126 62.1083C58.942 61.8963 58.9001 61.9546 58.9921 61.5726C59.083 61.1906 57.9335 61.2873 57.661 61.2488C57.4817 61.2244 57.307 61.1964 57.1614 61.2279ZM48.2898 65.1687L48.1815 65.0383C48.1769 65.0348 48.1652 65.0255 48.1606 65.0232C48.0161 64.9195 47.9719 65.0651 47.9556 65.2875C47.9276 65.6579 47.8648 66.0002 48.3853 66.1272C48.5309 66.1633 48.4202 66.0864 48.8337 66.0654C49.1481 66.0491 49.3764 65.8838 49.5301 65.6171C50.0238 64.7623 49.8771 63.9611 49.3414 63.2332C49.3344 63.2251 49.3228 63.2158 49.3158 63.2076L49.1947 63.0795C48.9664 62.8594 48.5647 62.4681 48.5088 62.1525C48.3446 61.7671 48.5425 60.7143 49.2587 61.1324C49.5324 61.2931 49.4777 61.5737 49.6733 60.7585C49.7676 60.3638 48.5227 59.9608 48.114 60.9891C47.8519 61.6471 47.7623 62.5729 48.2141 63.1494C48.631 63.6816 48.8616 63.7421 49.0643 64.1719C49.4544 65.001 48.8127 65.7801 48.2898 65.1687ZM17.1949 66.4672C17.0505 66.3112 16.969 66.0026 16.8945 65.7988C16.849 65.673 16.8502 65.6334 16.8257 65.5158L16.5241 64.5236C16.389 64.0391 16.2155 63.4883 16.1561 63.0027C16.1352 62.8338 16.0991 62.6242 16.0408 62.4646C15.8859 62.5042 15.8394 62.5415 15.6472 62.5485C15.186 62.5659 15.221 62.6183 15.391 62.9817C16.0245 64.5014 16.5404 66.402 17.0435 67.9509C17.535 68.0906 17.4115 67.6527 17.5909 66.9156L17.9274 65.291C17.9635 65.0581 18.0171 64.7984 18.0625 64.5189C18.1033 64.2662 18.0718 64.074 18.1382 63.7829C18.2058 63.4883 18.5901 62.2317 18.4224 62.191C17.8098 62.0407 17.7667 62.2946 17.8098 62.7255C17.8541 63.1773 17.5291 64.5038 17.4336 65.227C17.3731 65.694 17.3265 66.0689 17.1949 66.4672ZM18.8649 66.2215L18.7426 66.6268C18.6855 66.9121 18.3909 67.5701 18.4643 67.6819C18.5679 67.7575 18.795 67.7447 18.9499 67.683C19.1886 67.5875 19.1653 67.4385 19.1921 67.1997C19.2539 66.6605 19.3913 66.3333 19.5019 65.8733C19.6754 65.8302 20.4825 65.6602 20.6502 65.7009C20.826 65.744 20.8807 66.0456 20.9588 66.2436C21.4001 67.3593 20.8947 67.492 22.0535 67.1997L21.3419 65.6043C21.2848 65.4622 21.2872 65.404 21.2371 65.2619C21.1998 65.1548 21.1416 65.0488 21.0985 64.9417L20.1284 62.2865C20.0469 62.078 20.0329 62.1607 19.8792 61.993L18.9744 65.744C18.9254 65.8966 18.9208 65.8547 18.8952 65.9711C18.8824 66.0305 18.8928 66.105 18.8649 66.2215ZM19.9211 63.9145C19.8152 64.3559 19.6451 64.8205 19.7197 65.1722C19.927 65.1676 19.7185 65.1699 19.9037 65.1408C20.118 65.1082 20.3951 65.1804 20.4766 64.9545C20.4988 64.8962 20.1541 63.8563 20.0621 63.7468C19.984 63.819 19.9468 63.8074 19.9211 63.9145ZM42.8746 65.3877C42.9818 64.9416 42.8443 65.3516 42.8432 64.7169C42.8432 64.1812 42.8176 63.5057 42.8979 62.9794C42.453 62.7546 42.5928 62.8967 42.2329 62.8163C42.0897 63.4138 42.2015 63.2309 42.2481 63.5372C42.276 63.7189 42.3389 64.6901 42.2003 64.8741C42.1002 65.0057 42.0524 64.9976 41.8859 65.0278C41.1487 65.1618 40.8821 64.7972 40.5851 64.307C40.3976 63.9995 40.3941 63.7701 40.3044 63.4638C40.2602 63.3124 40.2427 62.5089 40.3056 62.2469C40.5641 61.1673 40.3953 61.5668 40.726 61.1475C40.8413 61.0008 40.8529 60.9472 41.0288 60.8506L41.3921 60.7155C41.7858 60.6875 42.2853 60.8855 42.6068 61.0474C42.6988 60.769 42.686 60.8471 42.6522 60.5338C42.6056 60.1192 42.7931 60.1879 42.0513 60.0062C41.9849 59.9911 41.37 59.9876 41.1627 60.0761C40.889 60.1926 40.6771 60.2531 40.4814 60.4837C40.1845 60.8331 40.3778 60.4348 40.1414 60.9856C40.0296 61.2442 39.7944 61.4829 39.7024 62.2084C39.6383 62.7045 39.6383 62.2632 39.6686 62.8373C39.6861 63.154 39.5579 63.1587 39.6639 63.4894C39.7385 63.7223 39.6849 63.8307 39.742 64.0508C39.8316 64.3966 39.9818 64.746 40.1728 65.0453C40.4849 65.5321 41.2873 65.8535 41.8288 65.7953C41.9709 65.779 41.9535 65.7557 42.1072 65.7207C42.2725 65.6835 42.8315 65.5659 42.8746 65.3877ZM72.225 63.6932C72.1575 63.9774 72.2565 64.1043 72.2646 64.3186C72.2565 65.3213 72.1505 66.8352 72.0853 67.7948L71.8838 68.8511C71.8174 69.3029 71.9758 69.1271 72.5534 69.254C72.6582 68.815 72.5918 69.0654 72.5523 68.8487L72.6245 66.8585C73.0181 67.2871 72.947 67.4583 73.0891 67.7913L73.4944 68.7626C73.5806 68.9198 73.7785 69.4031 73.9183 69.4369C74.6217 69.608 74.1745 69.1166 74.0441 68.7928C73.9951 68.6729 73.9753 68.6135 73.9276 68.4982L73.421 67.1834C73.3279 66.9517 73.329 67.0693 73.4059 66.7467C73.4618 66.5126 73.414 66.7875 73.6959 66.494C74.1326 66.0398 74.2164 65.227 74.0266 64.6249C73.8997 64.2219 73.732 63.9984 73.3488 63.8202C72.8038 63.5651 73.1567 63.6816 72.5849 63.6199C72.4474 63.6047 72.2588 63.5558 72.225 63.6932ZM72.6792 66.4195C73.1823 66.5301 73.4921 65.9676 73.5503 65.7266C73.6458 65.3283 73.6306 64.7169 73.3092 64.3722C73.1613 64.2126 73.0903 64.2057 72.8224 64.1404C72.6641 64.4572 72.6827 65.9269 72.6792 66.4195ZM12.8453 63.1948C12.8395 64.1952 13.1993 66.692 13.2936 67.8705C13.3099 68.0801 13.197 68.405 13.1958 68.6601L13.9656 68.5972L13.8887 68.0755C13.8736 67.9858 13.8421 67.9218 13.8223 67.8321L13.7443 67.3115C13.7245 67.0006 13.6826 66.6279 13.742 66.3799C13.7862 66.1982 13.7315 66.3589 13.8247 66.2495L14.1892 66.8783C14.2637 67.0006 14.3138 67.0809 14.3883 67.2032C14.4268 67.2661 14.4419 67.2894 14.4768 67.3523L15.0358 68.1488C15.2024 68.341 15.3293 68.4842 15.681 68.1605L14.9671 67.0938C14.8996 66.9831 14.393 65.9758 14.4023 65.9373C14.485 65.595 14.8611 65.6078 14.9287 64.8892C14.9741 64.4025 15.0312 64.1451 14.8006 63.5849C14.6864 63.3054 14.3511 63.0225 13.9737 62.9852C13.6162 62.9491 13.6663 62.9584 13.374 63.0003C13.0037 63.0539 13.1073 62.9538 12.8453 63.1948ZM13.7478 65.7277C14.0541 65.7207 14.4174 65.036 14.4174 65.036C14.485 64.753 14.4384 64.3349 14.3406 64.0682C14.3115 63.9867 14.3091 63.9378 14.2812 63.8609C14.2136 63.67 14.4011 63.8458 13.919 63.5547C13.7932 63.4778 13.7187 63.5162 13.5091 63.4662C13.4159 63.9821 13.5219 64.6016 13.5906 65.1746C13.5848 65.3364 13.6512 65.6136 13.7478 65.7277ZM24.4012 61.1848C24.2603 61.7764 24.4187 61.3641 24.4268 61.9406C24.4431 63.0329 24.5701 64.1451 24.5829 65.277C24.5817 65.2805 24.5782 65.2933 24.5724 65.2992C24.4594 65.3062 24.6318 65.397 24.5293 65.2409C24.3593 64.9836 24.2184 64.8345 24.0437 64.4455C23.6571 63.5849 22.7708 62.2876 22.5659 61.4911C22.3877 61.4899 22.3097 61.4771 22.1315 61.5074C21.9533 61.5376 21.8927 61.5644 21.7728 61.6494C21.8566 61.8742 22.0453 62.1059 22.1326 62.283C22.2642 62.5485 22.312 66.749 22.2409 67.0437C22.7091 67.2801 22.4808 67.0588 22.9408 67.0635C23.0224 66.7258 22.8349 66.4334 22.8174 66.1248C22.8069 65.9304 22.8395 65.8512 22.8023 65.6474C22.7347 65.2677 22.7895 65.475 22.779 65.135C22.772 64.8962 22.7161 64.9486 22.7277 64.6785C22.7487 64.1952 22.5903 63.4021 22.8605 63.543C22.9956 63.6129 22.8593 63.5162 22.9292 63.6141L24.315 66.2273C24.4466 66.4882 24.4024 66.3216 24.4909 66.6477C24.605 67.0716 24.8006 66.8795 25.2385 66.7188L25.1489 66.0841C25.1407 65.9513 25.1628 65.8488 25.1535 65.7161L24.973 61.8917C24.9322 61.5819 25.0312 61.4503 24.959 61.1696L24.4012 61.1848ZM43.5827 60.1285C43.5175 60.3987 43.5815 60.2729 43.6211 60.5105C43.7574 61.3303 43.7457 63.9471 43.649 64.8345C43.6153 65.1443 43.5314 65.3062 43.5291 65.5973C43.7143 65.6905 44.0392 65.7685 44.2535 65.7231C44.4118 65.6252 44.2313 65.2689 44.2465 64.9172C44.2604 64.583 44.201 64.7483 44.2406 63.9867C44.2593 63.635 44.1673 63.7783 44.2663 63.3625L44.3618 63.3858C44.3594 63.6327 44.8835 64.6121 45.0174 64.8927L45.34 65.468C45.5286 65.7953 45.7814 65.7219 46.1051 65.772C46.0993 65.5484 45.9141 65.3364 45.814 65.1385L45.4774 64.491C45.4145 64.3233 45.4285 64.3291 45.3481 64.1637C45.227 63.9145 44.9825 63.3928 44.9755 63.1343L45.3586 62.7686C45.5193 62.5659 45.6952 61.816 45.6509 61.5458L45.3493 60.5524C45.3435 60.5443 45.3353 60.5326 45.3295 60.5245C45.0628 60.1739 44.6133 60.0668 44.1824 60.0528C43.9611 60.0447 43.6292 59.934 43.5827 60.1285ZM44.229 60.7888C44.1673 61.0474 44.2779 62.0547 44.2476 62.3598C44.2197 62.6475 44.1463 62.7802 44.392 62.8408C44.5341 62.8757 44.4759 62.8338 44.5586 62.7826C44.5621 62.7814 44.6995 62.6684 44.7193 62.6486C45.2294 62.1409 45.2154 60.7783 44.3338 60.5629C44.2837 60.6642 44.2593 60.6607 44.229 60.7888ZM65.608 62.5322C65.5707 62.6847 65.5777 62.7721 65.6068 62.8978C65.7407 63.4813 65.3937 67.2032 65.233 67.8717C65.4473 67.9881 65.2551 67.9672 65.495 68.0336C65.6173 68.0662 65.6662 68.0452 65.8409 68.0731C66.3463 68.1523 66.9263 68.0335 67.1732 67.5374C67.3898 67.0984 67.3537 67.5258 67.3502 66.947C67.349 66.7782 67.4096 66.4824 67.3816 66.3193L67.0823 65.5693C66.9682 65.3853 66.8739 65.3225 66.9135 65.0628C67.1173 65.0593 67.1161 64.9754 67.2116 64.7565C67.448 64.2103 67.4946 63.6618 67.2046 63.1412C67.0509 62.8664 66.9833 62.7348 66.6421 62.6323C66.4139 62.5636 65.6697 62.2713 65.608 62.5322ZM66.1938 63.0271L66.0773 64.5585C66.0901 64.7064 66.0889 64.8823 66.1181 65.0208C66.4721 65.0756 66.7679 64.6214 66.8576 64.2452C66.9111 64.024 66.8424 63.755 66.804 63.5477C66.7399 63.2053 66.542 62.9817 66.1938 63.0271ZM65.9539 67.5957C66.1227 67.6213 66.3323 67.6318 66.4488 67.5456C67.1301 67.0437 66.8669 65.454 66.1565 65.2805C65.8968 65.2176 66.0039 65.5554 66.0167 65.7312C66.0342 65.9665 65.8304 67.1159 65.9539 67.5957ZM55.9864 61.0916C55.7465 61.5702 54.9208 63.154 54.5982 63.5186C54.4655 63.3741 54.3118 63.0737 54.243 62.8839C54.1196 62.5974 53.4046 61.0346 53.3976 60.762C53.0668 60.6817 52.9842 60.7551 52.7082 60.6945C52.6464 61.1021 52.9702 60.8575 52.9155 61.9068C52.8374 63.2239 52.8759 65.036 52.5847 66.246C52.9294 66.5278 53.3556 66.3938 53.3918 66.2413C53.4453 66.0177 53.3626 65.9571 53.3347 65.8302C53.3324 65.8197 53.3289 65.8058 53.3265 65.7941C53.3615 64.9393 53.2904 63.3066 53.4628 62.5881C53.6875 62.7103 54.2757 64.2988 54.4201 64.6819L54.5633 64.7169C54.9802 64.0531 55.4088 63.3241 55.8711 62.6964C55.8117 63.0877 55.7511 64.9207 55.6696 65.7056C55.5532 66.8259 55.4169 66.6023 56.196 66.7246C56.3369 66.4626 56.3323 66.3799 56.2717 65.9886C56.3032 64.675 56.2263 62.8198 56.5244 61.5749C56.5978 61.2721 56.9192 60.9239 56.288 61.0555C56.1599 61.0823 56.1343 61.0928 55.9864 61.0916ZM35.9874 65.7697C35.9897 65.2922 36.1656 64.2161 36.5091 63.9122C36.6244 63.8097 37.2649 63.6234 37.4874 63.6257L37.5316 64.8997C37.6085 65.3842 37.2055 65.6881 37.7727 65.7196L38.9174 65.6648C39.2819 65.6101 39.4019 65.5775 39.4322 65.135C39.4823 64.3955 39.2319 65.1629 38.1989 65.1524C38.1698 65.0371 38.0836 64.8392 38.0731 64.7425C38.0498 64.5387 37.9963 63.4429 38.0603 63.3788C38.1756 63.2635 38.5063 63.0981 38.8056 63.1703C38.9594 63.2088 39.0991 63.3986 38.999 62.7756C39.1445 62.1688 38.7742 62.4553 38.6997 62.4693C37.6422 62.6591 37.9846 62.3354 37.8658 61.4212C37.7261 60.3766 37.8239 60.6724 38.8324 60.8308C38.9442 60.3661 39.0001 60.3812 38.872 60.0365C38.4737 59.9492 37.8414 60.1308 37.4233 60.1145C36.8934 60.0936 37.0425 60.0971 36.6419 61.3501C36.2855 62.4355 35.9816 63.5046 35.6311 64.5923C35.5495 64.7914 35.5041 64.8846 35.4471 65.0849C35.3422 65.4517 35.0045 65.9991 35.5088 65.8558C35.7871 65.7766 35.7824 65.8209 35.9874 65.7697ZM37.4256 62.9421L37.3406 61.0439L36.6535 63.1063L37.4256 62.9421ZM59.8213 61.4736C59.7037 61.9615 59.9156 62.4996 59.8353 62.8839C59.6641 63.7119 59.7328 65.3481 59.6245 66.3391C59.6023 66.5464 59.5336 66.8667 59.5325 67.0856C60.0018 67.1997 59.9273 67.1194 60.4571 67.2079C60.9789 67.2952 61.4528 66.9563 61.737 66.5231C62.1388 65.9129 62.0933 65.8535 62.2762 65.0895C62.381 64.6505 62.2738 63.4883 62.084 63.0562C62.006 62.8769 62.0491 63.0574 61.9816 62.8757C61.8639 62.5636 62.0456 62.8024 61.7673 62.4786L61.6904 62.3633C61.6846 62.354 61.6788 62.3412 61.6729 62.333L61.6345 62.276C61.5903 62.2177 61.5518 62.1816 61.4959 62.1164C61.3841 61.9872 60.9102 61.689 60.831 61.6692L59.8213 61.4736ZM60.5154 62.1455C60.3593 62.3226 60.1066 65.8255 60.1963 66.48C60.2172 66.6268 60.1054 66.7665 60.5957 66.6442C60.9544 66.5546 61.0138 66.3857 61.2665 66.0841C61.5262 65.7743 61.5984 65.234 61.6927 64.7972C61.7777 64.406 61.7079 64.4258 61.6881 64.109C61.6438 63.4219 61.5309 63.09 61.1512 62.6102C60.8519 62.2329 60.8624 62.3214 60.5154 62.1455ZM25.7288 61.1056C25.7311 61.1918 25.8406 61.4014 25.8825 62.0675C25.9419 63.0166 26.1352 64.732 26.0549 65.5728C26.0223 65.9338 25.992 65.9513 26.0036 66.3345C26.0071 66.4649 26.0095 66.6221 26.1609 66.6489C26.4473 66.7013 26.6372 66.6279 26.8247 66.5988C27.1589 66.5464 27.1729 66.5266 27.5141 66.338L27.7936 66.133C27.9741 65.9327 28.1173 65.7312 28.2035 65.4808C28.3689 64.9987 28.3456 65.4424 28.4399 64.7681C28.5901 63.7061 28.5552 64.4025 28.5272 63.2961C28.5237 63.1773 28.5261 63.1366 28.4946 63.0318C28.3805 62.6521 28.4678 62.7511 28.3526 62.5101C28.1325 62.0501 28.1313 61.8346 27.6538 61.3944C27.2183 60.9926 26.792 61.045 26.3064 60.9903C25.8581 60.9391 26.0246 61.0998 25.7288 61.1056ZM26.4811 61.5411C26.3961 61.8952 26.4706 61.816 26.4636 62.1188C26.5079 63.0714 26.5254 64.0123 26.5766 64.9708C26.5778 65.1664 26.5289 65.3376 26.5719 65.5426C26.6022 65.6823 26.6092 65.6276 26.6127 65.8011C26.6174 65.9886 26.6022 65.9408 26.6441 66.1062C26.8689 66.0585 26.9202 66.0946 27.2066 65.8349C27.2765 65.772 27.3045 65.7324 27.3802 65.6555C27.7877 65.2398 27.9729 64.1812 27.9496 63.6886C27.9403 63.5023 27.9356 63.6094 27.9135 63.5081C27.8914 63.4033 27.8914 63.3707 27.8902 63.2787C27.8856 62.9211 27.8926 63.196 27.7947 62.8501C27.6259 62.2515 27.4011 62.0314 26.9807 61.6821C26.8375 61.5633 26.7024 61.512 26.4811 61.5411ZM68.0012 64.725C67.8568 65.3609 67.7927 66.2844 67.9837 67.0786C68.1234 67.6597 68.3994 68.171 68.8792 68.4505C69.0388 68.5413 69.2007 68.6892 69.3567 68.7265C69.734 68.8185 70.3151 68.638 70.6552 68.2688C71.0896 67.7971 71.1699 67.4653 71.3423 66.7467C71.4715 66.2075 71.4529 66.0258 71.4261 65.5996C71.4087 65.3213 71.4657 65.319 71.3865 65.0558C71.333 64.8788 71.3202 64.7355 71.2654 64.562C71.1583 64.2254 71.0849 63.9879 70.8706 63.7072L70.3256 63.1867C69.3159 62.46 68.2271 63.7864 68.0012 64.725ZM69.5523 68.1209C69.72 68.1617 69.5885 68.1139 69.734 68.086C70.4246 67.9509 70.6587 67.499 70.8206 66.8212C70.923 66.3938 70.8974 65.4692 70.7914 65.0139C70.7437 64.8054 70.6843 64.6785 70.6249 64.5061C70.5201 64.2022 70.4316 64.0729 70.1963 63.8749C70.0915 63.7864 70.0997 63.762 69.9634 63.6909C69.4044 63.3974 68.8851 63.8644 68.6766 64.4409C68.5357 64.8287 68.4705 65.3236 68.4169 65.73C68.4483 66.1109 68.4612 66.7735 68.6207 67.1066C68.6684 67.2067 68.6929 67.2615 68.7395 67.3581C68.8979 67.69 69.1517 68.0231 69.5523 68.1209ZM30.6595 65.5263C31.1137 65.6369 31.4549 65.4343 31.6611 65.0476C32.0046 64.4036 31.965 64.4572 32.0011 63.7352C32.0093 63.5616 32.0361 63.4429 32.0186 63.2787C31.9988 63.1121 31.9708 63.0434 31.9639 62.8664L31.8334 62.2969C31.8043 62.1956 31.7973 62.2084 31.7566 62.099L31.6506 61.8393C31.3315 61.2558 30.6304 60.9437 30.2124 61.3583C29.8281 61.7403 29.7605 62.0268 29.658 62.5659C29.58 62.9747 29.5847 63.5803 29.6557 63.9879C29.7465 64.5131 30.0936 65.3888 30.6595 65.5263ZM76.2754 54.0157C76.3126 54.5363 76.3615 55.0639 76.4104 55.5891C71.7219 53.048 64.7625 52.4122 61.5751 56.3332C62.0526 61.8975 78.7757 62.8839 81.4879 59.8595C81.6533 59.6138 81.7663 59.3529 81.8198 59.0746C82.1669 57.2486 79.8541 55.2618 76.2754 54.0157ZM0.723376 59.8572C0.558009 59.6126 0.44505 59.3518 0.392645 59.0746C0.0444419 57.2486 2.35842 55.2618 5.93595 54.0157C5.89985 54.5363 5.85094 55.0639 5.80086 55.5891C10.4894 53.048 17.4488 52.4122 20.6362 56.3332C20.1599 61.8987 3.43331 62.885 0.723376 59.8572Z" fill="white"/>
</svg>
